<?xml version="1.0" encoding="utf-8"?>
<!-- Generator: Adobe Illustrator 17.0.0, SVG Export Plug-In . SVG Version: 6.00 Build 0)  -->
<!DOCTYPE svg PUBLIC "-//W3C//DTD SVG 1.1//EN" "http://www.w3.org/Graphics/SVG/1.1/DTD/svg11.dtd">
<svg version="1.1" id="Layer_1" xmlns="http://www.w3.org/2000/svg" xmlns:xlink="http://www.w3.org/1999/xlink" x="0px" y="0px"
	 width="100px" height="100px" viewBox="0 0 100 100" enable-background="new 0 0 100 100" xml:space="preserve">
<polygon fill-rule="evenodd" clip-rule="evenodd" fill="#0C5F55" points="11.369,76.014 18.337,54.795 33.23,71.439 48.122,88.083 
	26.262,92.658 4.402,97.233 "/>
<g id="WA_Logo">
	<g>
		<path fill-rule="evenodd" clip-rule="evenodd" fill="#FFFFFF" d="M85.446,14.8C76.044,5.387,63.54,0.201,50.218,0.195
			c-27.449,0-49.79,22.339-49.801,49.797c-0.004,8.777,2.289,17.344,6.648,24.897L0,100.695l26.4-6.925
			c7.274,3.968,15.464,6.059,23.798,6.062h0.02c0.002,0-0.001,0,0,0c27.446,0,49.789-22.341,49.8-49.799
			C100.024,36.725,94.849,24.213,85.446,14.8z M50.219,91.42h-0.017c-7.427-0.003-14.712-1.998-21.067-5.77l-1.511-0.897
			l-15.666,4.109l4.182-15.274l-0.984-1.566c-4.143-6.59-6.332-14.207-6.329-22.028C8.835,27.173,27.403,8.606,50.235,8.606
			c11.056,0.004,21.448,4.315,29.263,12.139c7.815,7.824,12.116,18.223,12.112,29.283C91.601,72.852,73.033,91.42,50.219,91.42z"/>
	</g>
</g>
<circle fill-rule="evenodd" clip-rule="evenodd" fill="#0C5F55" cx="50.378" cy="49.547" r="41.703"/>
<polygon fill-rule="evenodd" clip-rule="evenodd" fill="#FFFFFF" points="36.767,49.547 36.767,27.213 56.109,38.38 75.451,49.547 
	56.109,60.713 36.767,71.88 "/>
<polygon fill-rule="evenodd" clip-rule="evenodd" fill="#0C5F55" points="21.723,49.547 21.723,27.213 41.065,38.38 60.407,49.547 
	41.065,60.713 21.723,71.88 "/>
<rect x="36.767" y="54.795" fill-rule="evenodd" clip-rule="evenodd" fill="#FFFFFF" width="6.925" height="13.087"/>
</svg>
